<mxfile host="app.diagrams.net" modified="2022-04-24T18:34:11.707Z" agent="5.0 (Windows NT 10.0; Win64; x64) AppleWebKit/537.36 (KHTML, like Gecko) Chrome/100.0.4896.127 Safari/537.36" etag="gqFwmu6XqZZlp-trLEwg" version="17.4.6" type="github" pages="3">
  <diagram id="m-eAtUqbNKNmQCcAXYnf" name="第 1 页">
    <mxGraphModel dx="1038" dy="539" grid="1" gridSize="10" guides="1" tooltips="1" connect="1" arrows="1" fold="1" page="1" pageScale="1" pageWidth="827" pageHeight="1169" math="0" shadow="0">
      <root>
        <mxCell id="0" />
        <mxCell id="1" parent="0" />
        <mxCell id="pERXCPZc-3q7UmbXS5iH-1" value="药剂师" style="shape=umlActor;verticalLabelPosition=bottom;verticalAlign=top;html=1;" vertex="1" parent="1">
          <mxGeometry x="130" y="220" width="115" height="230" as="geometry" />
        </mxCell>
        <mxCell id="pERXCPZc-3q7UmbXS5iH-5" value="接受处方" style="ellipse;whiteSpace=wrap;html=1;" vertex="1" parent="1">
          <mxGeometry x="335" y="150" width="105" height="70" as="geometry" />
        </mxCell>
        <mxCell id="pERXCPZc-3q7UmbXS5iH-6" value="按处方配药" style="ellipse;whiteSpace=wrap;html=1;" vertex="1" parent="1">
          <mxGeometry x="335" y="230" width="105" height="70" as="geometry" />
        </mxCell>
        <mxCell id="pERXCPZc-3q7UmbXS5iH-7" value="确认患者信息" style="ellipse;whiteSpace=wrap;html=1;" vertex="1" parent="1">
          <mxGeometry x="335" y="310" width="105" height="70" as="geometry" />
        </mxCell>
        <mxCell id="pERXCPZc-3q7UmbXS5iH-8" value="查看药品库存" style="ellipse;whiteSpace=wrap;html=1;" vertex="1" parent="1">
          <mxGeometry x="335" y="390" width="105" height="70" as="geometry" />
        </mxCell>
        <mxCell id="pERXCPZc-3q7UmbXS5iH-9" value="检测药品是否冲突" style="ellipse;whiteSpace=wrap;html=1;" vertex="1" parent="1">
          <mxGeometry x="335" y="470" width="105" height="70" as="geometry" />
        </mxCell>
        <mxCell id="pERXCPZc-3q7UmbXS5iH-10" value="" style="endArrow=none;html=1;rounded=0;entryX=0.013;entryY=0.643;entryDx=0;entryDy=0;entryPerimeter=0;exitX=1;exitY=0.3333333333333333;exitDx=0;exitDy=0;exitPerimeter=0;" edge="1" parent="1" source="pERXCPZc-3q7UmbXS5iH-1" target="pERXCPZc-3q7UmbXS5iH-5">
          <mxGeometry width="50" height="50" relative="1" as="geometry">
            <mxPoint x="200" y="410" as="sourcePoint" />
            <mxPoint x="250" y="360" as="targetPoint" />
          </mxGeometry>
        </mxCell>
        <mxCell id="pERXCPZc-3q7UmbXS5iH-13" value="" style="endArrow=none;html=1;rounded=0;exitX=1;exitY=0.3333333333333333;exitDx=0;exitDy=0;exitPerimeter=0;" edge="1" parent="1" source="pERXCPZc-3q7UmbXS5iH-1" target="pERXCPZc-3q7UmbXS5iH-6">
          <mxGeometry width="50" height="50" relative="1" as="geometry">
            <mxPoint x="200" y="410" as="sourcePoint" />
            <mxPoint x="250" y="360" as="targetPoint" />
          </mxGeometry>
        </mxCell>
        <mxCell id="pERXCPZc-3q7UmbXS5iH-14" value="" style="endArrow=none;html=1;rounded=0;exitX=0.5;exitY=0.5;exitDx=0;exitDy=0;exitPerimeter=0;" edge="1" parent="1" source="pERXCPZc-3q7UmbXS5iH-1" target="pERXCPZc-3q7UmbXS5iH-7">
          <mxGeometry width="50" height="50" relative="1" as="geometry">
            <mxPoint x="200" y="410" as="sourcePoint" />
            <mxPoint x="250" y="360" as="targetPoint" />
          </mxGeometry>
        </mxCell>
        <mxCell id="pERXCPZc-3q7UmbXS5iH-15" value="" style="endArrow=none;html=1;rounded=0;exitX=0.494;exitY=0.608;exitDx=0;exitDy=0;exitPerimeter=0;" edge="1" parent="1" source="pERXCPZc-3q7UmbXS5iH-1" target="pERXCPZc-3q7UmbXS5iH-8">
          <mxGeometry width="50" height="50" relative="1" as="geometry">
            <mxPoint x="200" y="410" as="sourcePoint" />
            <mxPoint x="250" y="360" as="targetPoint" />
          </mxGeometry>
        </mxCell>
        <mxCell id="pERXCPZc-3q7UmbXS5iH-16" value="" style="endArrow=none;html=1;rounded=0;exitX=0;exitY=0.5;exitDx=0;exitDy=0;entryX=0.835;entryY=0.907;entryDx=0;entryDy=0;entryPerimeter=0;" edge="1" parent="1" source="pERXCPZc-3q7UmbXS5iH-9" target="pERXCPZc-3q7UmbXS5iH-1">
          <mxGeometry width="50" height="50" relative="1" as="geometry">
            <mxPoint x="200" y="410" as="sourcePoint" />
            <mxPoint x="250" y="360" as="targetPoint" />
          </mxGeometry>
        </mxCell>
      </root>
    </mxGraphModel>
  </diagram>
  <diagram id="v2-2_FOrBSnhDc4nN9Yb" name="第 2 页">
    <mxGraphModel dx="865" dy="449" grid="1" gridSize="10" guides="1" tooltips="1" connect="1" arrows="1" fold="1" page="1" pageScale="1" pageWidth="827" pageHeight="1169" math="0" shadow="0">
      <root>
        <mxCell id="0" />
        <mxCell id="1" parent="0" />
        <mxCell id="2CLd0Ci9i_ObZqzSh1zs-1" value="医生" style="shape=umlActor;verticalLabelPosition=bottom;verticalAlign=top;html=1;outlineConnect=0;" vertex="1" parent="1">
          <mxGeometry x="220" y="270" width="85" height="170" as="geometry" />
        </mxCell>
        <mxCell id="2CLd0Ci9i_ObZqzSh1zs-2" value="查看患者病历" style="ellipse;whiteSpace=wrap;html=1;" vertex="1" parent="1">
          <mxGeometry x="400" y="180" width="120" height="80" as="geometry" />
        </mxCell>
        <mxCell id="2CLd0Ci9i_ObZqzSh1zs-4" value="确认患者信息" style="ellipse;whiteSpace=wrap;html=1;" vertex="1" parent="1">
          <mxGeometry x="400" y="270" width="120" height="80" as="geometry" />
        </mxCell>
        <mxCell id="2CLd0Ci9i_ObZqzSh1zs-5" value="给患者开处方" style="ellipse;whiteSpace=wrap;html=1;" vertex="1" parent="1">
          <mxGeometry x="400" y="360" width="120" height="80" as="geometry" />
        </mxCell>
        <mxCell id="2CLd0Ci9i_ObZqzSh1zs-6" value="录入患者情况" style="ellipse;whiteSpace=wrap;html=1;" vertex="1" parent="1">
          <mxGeometry x="400" y="450" width="120" height="80" as="geometry" />
        </mxCell>
        <mxCell id="4Qt1_j0MQGc9BO2KoSgk-1" value="" style="endArrow=none;html=1;rounded=0;exitX=1;exitY=0.3333333333333333;exitDx=0;exitDy=0;exitPerimeter=0;" edge="1" parent="1" source="2CLd0Ci9i_ObZqzSh1zs-1" target="2CLd0Ci9i_ObZqzSh1zs-2">
          <mxGeometry width="50" height="50" relative="1" as="geometry">
            <mxPoint x="390" y="400" as="sourcePoint" />
            <mxPoint x="440" y="350" as="targetPoint" />
          </mxGeometry>
        </mxCell>
        <mxCell id="4Qt1_j0MQGc9BO2KoSgk-2" value="" style="endArrow=none;html=1;rounded=0;entryX=0;entryY=0.5;entryDx=0;entryDy=0;exitX=0.5;exitY=0.5;exitDx=0;exitDy=0;exitPerimeter=0;" edge="1" parent="1" source="2CLd0Ci9i_ObZqzSh1zs-1" target="2CLd0Ci9i_ObZqzSh1zs-5">
          <mxGeometry width="50" height="50" relative="1" as="geometry">
            <mxPoint x="305" y="460" as="sourcePoint" />
            <mxPoint x="355" y="410" as="targetPoint" />
          </mxGeometry>
        </mxCell>
        <mxCell id="4Qt1_j0MQGc9BO2KoSgk-5" value="" style="endArrow=none;html=1;rounded=0;entryX=0.056;entryY=0.225;entryDx=0;entryDy=0;entryPerimeter=0;exitX=0.5;exitY=0.5;exitDx=0;exitDy=0;exitPerimeter=0;" edge="1" parent="1" source="2CLd0Ci9i_ObZqzSh1zs-1" target="2CLd0Ci9i_ObZqzSh1zs-6">
          <mxGeometry width="50" height="50" relative="1" as="geometry">
            <mxPoint x="330" y="390" as="sourcePoint" />
            <mxPoint x="380" y="340" as="targetPoint" />
          </mxGeometry>
        </mxCell>
        <mxCell id="4Qt1_j0MQGc9BO2KoSgk-6" value="" style="endArrow=none;html=1;rounded=0;exitX=1;exitY=0.3333333333333333;exitDx=0;exitDy=0;exitPerimeter=0;entryX=0.045;entryY=0.692;entryDx=0;entryDy=0;entryPerimeter=0;" edge="1" parent="1" source="2CLd0Ci9i_ObZqzSh1zs-1" target="2CLd0Ci9i_ObZqzSh1zs-4">
          <mxGeometry width="50" height="50" relative="1" as="geometry">
            <mxPoint x="340" y="400" as="sourcePoint" />
            <mxPoint x="390" y="350" as="targetPoint" />
          </mxGeometry>
        </mxCell>
      </root>
    </mxGraphModel>
  </diagram>
  <diagram id="Mm1UNhQogkiHYhRgZUf_" name="第 3 页">
    <mxGraphModel dx="1038" dy="539" grid="1" gridSize="10" guides="1" tooltips="1" connect="1" arrows="1" fold="1" page="1" pageScale="1" pageWidth="827" pageHeight="1169" math="0" shadow="0">
      <root>
        <mxCell id="0" />
        <mxCell id="1" parent="0" />
        <mxCell id="SB9YrovNIupg35OUCWqb-1" value="患者" style="shape=umlActor;verticalLabelPosition=bottom;verticalAlign=top;html=1;" vertex="1" parent="1">
          <mxGeometry x="200" y="250" width="90" height="180" as="geometry" />
        </mxCell>
        <mxCell id="SB9YrovNIupg35OUCWqb-2" value="查询过往病历" style="ellipse;whiteSpace=wrap;html=1;" vertex="1" parent="1">
          <mxGeometry x="414" y="120" width="120" height="80" as="geometry" />
        </mxCell>
        <mxCell id="SB9YrovNIupg35OUCWqb-3" value="挂号" style="ellipse;whiteSpace=wrap;html=1;" vertex="1" parent="1">
          <mxGeometry x="414" y="210" width="120" height="80" as="geometry" />
        </mxCell>
        <mxCell id="SB9YrovNIupg35OUCWqb-4" value="查询个人信息" style="ellipse;whiteSpace=wrap;html=1;" vertex="1" parent="1">
          <mxGeometry x="414" y="300" width="120" height="80" as="geometry" />
        </mxCell>
        <mxCell id="SB9YrovNIupg35OUCWqb-5" value="付费" style="ellipse;whiteSpace=wrap;html=1;" vertex="1" parent="1">
          <mxGeometry x="414" y="390" width="120" height="80" as="geometry" />
        </mxCell>
        <mxCell id="SB9YrovNIupg35OUCWqb-6" value="查看处方" style="ellipse;whiteSpace=wrap;html=1;" vertex="1" parent="1">
          <mxGeometry x="414" y="480" width="120" height="80" as="geometry" />
        </mxCell>
        <mxCell id="SB9YrovNIupg35OUCWqb-7" value="" style="endArrow=none;html=1;rounded=0;" edge="1" parent="1" source="SB9YrovNIupg35OUCWqb-1" target="SB9YrovNIupg35OUCWqb-2">
          <mxGeometry width="50" height="50" relative="1" as="geometry">
            <mxPoint x="390" y="400" as="sourcePoint" />
            <mxPoint x="440" y="350" as="targetPoint" />
          </mxGeometry>
        </mxCell>
        <mxCell id="SB9YrovNIupg35OUCWqb-8" value="" style="endArrow=none;html=1;rounded=0;exitX=0.804;exitY=0.343;exitDx=0;exitDy=0;exitPerimeter=0;" edge="1" parent="1" source="SB9YrovNIupg35OUCWqb-1" target="SB9YrovNIupg35OUCWqb-6">
          <mxGeometry width="50" height="50" relative="1" as="geometry">
            <mxPoint x="390" y="400" as="sourcePoint" />
            <mxPoint x="440" y="350" as="targetPoint" />
          </mxGeometry>
        </mxCell>
        <mxCell id="SB9YrovNIupg35OUCWqb-9" value="" style="endArrow=none;html=1;rounded=0;entryX=0;entryY=0.5;entryDx=0;entryDy=0;" edge="1" parent="1" target="SB9YrovNIupg35OUCWqb-5">
          <mxGeometry width="50" height="50" relative="1" as="geometry">
            <mxPoint x="290" y="310" as="sourcePoint" />
            <mxPoint x="370" y="390" as="targetPoint" />
          </mxGeometry>
        </mxCell>
        <mxCell id="SB9YrovNIupg35OUCWqb-10" value="" style="endArrow=none;html=1;rounded=0;exitX=1;exitY=0.3333333333333333;exitDx=0;exitDy=0;exitPerimeter=0;" edge="1" parent="1" source="SB9YrovNIupg35OUCWqb-1" target="SB9YrovNIupg35OUCWqb-4">
          <mxGeometry width="50" height="50" relative="1" as="geometry">
            <mxPoint x="390" y="400" as="sourcePoint" />
            <mxPoint x="440" y="350" as="targetPoint" />
          </mxGeometry>
        </mxCell>
        <mxCell id="SB9YrovNIupg35OUCWqb-11" value="" style="endArrow=none;html=1;rounded=0;exitX=1;exitY=0.3333333333333333;exitDx=0;exitDy=0;exitPerimeter=0;" edge="1" parent="1" source="SB9YrovNIupg35OUCWqb-1" target="SB9YrovNIupg35OUCWqb-3">
          <mxGeometry width="50" height="50" relative="1" as="geometry">
            <mxPoint x="390" y="400" as="sourcePoint" />
            <mxPoint x="440" y="350" as="targetPoint" />
          </mxGeometry>
        </mxCell>
      </root>
    </mxGraphModel>
  </diagram>
</mxfile>
